<svg width="25" height="26" viewBox="0 0 25 26" fill="none" xmlns="http://www.w3.org/2000/svg">
<path d="M7.28038 14.9558L6.62772 17.3922L4.24227 17.4427C3.52937 16.1204 3.125 14.6076 3.125 12.9999C3.125 11.4453 3.50307 9.97933 4.17324 8.68848H4.17375L6.29747 9.07783L7.22779 11.1888C7.03308 11.7565 6.92695 12.3658 6.92695 12.9999C6.92702 13.6881 7.05168 14.3475 7.28038 14.9558Z" fill="#FBBB00"/>
<path d="M21.7116 11.2483C21.8193 11.8154 21.8754 12.4011 21.8754 12.9997C21.8754 13.6708 21.8048 14.3255 21.6704 14.9571C21.214 17.1061 20.0215 18.9826 18.3696 20.3106L18.3691 20.3101L15.6942 20.1736L15.3156 17.8103C16.4117 17.1674 17.2683 16.1614 17.7196 14.9571H12.7065V11.2483H17.7927H21.7116Z" fill="#518EF8"/>
<path d="M18.3682 20.3106L18.3688 20.3111C16.7622 21.6025 14.7213 22.3751 12.4996 22.3751C8.92942 22.3751 5.8254 20.3796 4.24194 17.443L7.28005 14.9561C8.07176 17.069 10.11 18.5731 12.4996 18.5731C13.5267 18.5731 14.489 18.2955 15.3147 17.8108L18.3682 20.3106Z" fill="#28B446"/>
<path d="M18.4836 5.78329L15.4465 8.26971C14.5919 7.73555 13.5818 7.42699 12.4996 7.42699C10.0559 7.42699 7.97949 9.00011 7.22744 11.1888L4.17336 8.6885H4.17285C5.73312 5.68028 8.8763 3.625 12.4996 3.625C14.7743 3.625 16.86 4.43527 18.4836 5.78329Z" fill="#F14336"/>
</svg>
